<svg xmlns="http://www.w3.org/2000/svg" viewBox="0 0 64 64" role="img" aria-label="SyncDocs favicon">
  <defs>
    <linearGradient id="bg" x1="0" x2="1" y1="0" y2="1">
      <stop offset="0%" stop-color="#0f766e"/>
      <stop offset="100%" stop-color="#0ea5e9"/>
    </linearGradient>
  </defs>
  <rect x="4" y="4" width="56" height="56" rx="14" fill="url(#bg)"/>
  <path d="M22 18h16l8 8v20a4 4 0 0 1-4 4H22a4 4 0 0 1-4-4V22a4 4 0 0 1 4-4z" fill="#ffffff" opacity="0.95"/>
  <path d="M38 18v8h8" fill="none" stroke="#0f766e" stroke-width="3" stroke-linecap="round" stroke-linejoin="round"/>
  <path d="M25 33a8 8 0 0 1 13-4" fill="none" stroke="#0f766e" stroke-width="3" stroke-linecap="round"/>
  <path d="M39 31l-0.5 5-4.6-2.2" fill="#0f766e"/>
  <path d="M39 39a8 8 0 0 1-13 4" fill="none" stroke="#0ea5e9" stroke-width="3" stroke-linecap="round"/>
  <path d="M25 41l0.5-5 4.6 2.2" fill="#0ea5e9"/>
</svg>
